<svg width="2756" height="2756" viewBox="0 0 2756 2756" fill="none" xmlns="http://www.w3.org/2000/svg">
<path fill-rule="evenodd" clip-rule="evenodd" d="M547.285 269.922C582.315 243.657 618.557 219.074 655.872 196.254L196.29 655.872C219.111 618.556 243.656 582.306 269.895 547.322L547.285 269.922ZM1155.47 11.0875C1169.08 8.85585 1182.75 6.85298 1196.42 5.05202L5.09796 1196.38C6.89 1182.71 8.90179 1169.07 11.1245 1155.43L1155.47 11.0875ZM1515.91 0C1526.38 1.03736 1536.86 2.18569 1547.34 3.47192L3.51904 1547.3C2.22152 1536.83 1.07438 1526.35 0 1515.86L1515.91 0ZM1804.71 60.4658C1813.47 63.2951 1822.18 66.2355 1830.91 69.2577L69.2577 1830.86C66.2815 1822.18 63.3321 1813.43 60.5039 1804.67L1804.71 60.4658ZM2048.38 166.141C2055.87 170.274 2063.31 174.509 2070.69 178.772L178.818 2070.66C174.546 2063.26 170.312 2055.84 166.187 2048.33L2048.38 166.141ZM2256.48 307.357C2262.86 312.632 2269.22 317.904 2275.49 323.287L323.323 2275.49C317.94 2269.17 312.667 2262.82 307.394 2256.44L2256.48 307.357ZM2432.7 480.462C2438.06 486.782 2443.37 493.131 2448.6 499.525L499.561 2448.6C493.141 2443.32 486.782 2438.05 480.508 2432.67L2432.7 480.462ZM2577.22 685.297C2581.49 692.693 2585.69 700.151 2589.81 707.62L707.657 2589.81C700.162 2585.68 692.729 2581.48 685.334 2577.22L2577.22 685.297ZM2686.74 925.088C2689.75 933.769 2692.66 942.487 2695.5 951.242L951.288 2695.5C942.534 2692.66 933.806 2689.72 925.124 2686.7L2686.74 925.088ZM2752.52 1208.65C2753.81 1219.13 2754.96 1229.61 2756 1240.09L1240.12 2756C1229.64 2754.92 1219.17 2753.77 1208.69 2752.48L2752.52 1208.65ZM2750.94 1559.54C2749.15 1573.24 2747.1 1586.92 2744.91 1600.52L1600.56 2744.87C1586.96 2747.1 1573.29 2749.11 1559.58 2750.9L2750.94 1559.54ZM2559.71 2100.12C2536.92 2137.41 2512.41 2173.61 2486.18 2208.57L2208.64 2486.1C2173.65 2512.33 2137.44 2536.88 2100.12 2559.7L2559.71 2100.12Z" fill="#57534E"/>
</svg>
